File Name

Reservoir Dogs 1992 BRRip H264 LKRG-Wrath.mp4

File Size
Format : MPEG-4
Format profile : Base Media
Codec ID : isom
File size : 1.73 GiB
Duration : 1h 39mn
Overall bit rate : 2 495 Kbps

Video
ID : 1
Format : AVC
Format/Info : Advanced Video Codec
Format profile : High@L4.1
Format settings, CABAC : Yes
Format settings, ReFrames : 3 frames
Codec ID : avc1
Codec ID/Info : Advanced Video Coding
Duration : 1h 39mn
Bit rate mode : Variable
Bit rate : 1 914 Kbps
Nominal bit rate : 3 033 Kbps
Maximum bit rate : 10.5 Mbps
Width : 1 276 pixels
Height : 544 pixels
Display aspect ratio : 2.35:1
Frame rate mode : Constant
Frame rate : 23.976 fps
Resolution : 24 bits
Colorimetry : 4:2:0
Scan type : Progressive
Bits/(Pixel*Frame) : 0.115
Stream size : 1.33 GiB (77%)

Audio #1
ID : 2
Format : AAC
Format/Info : Advanced Audio Codec
Format version : Version 4
Format profile : LC
Format settings, SBR : No
Codec ID : 40
Duration : 1h 39mn
Bit rate mode : Variable
Bit rate : 128 Kbps
Maximum bit rate : 138 Kbps
Channel(s) : 2 channels
Channel positions : L R
Sampling rate : 48.0 KHz
Resolution : 16 bits
Stream size : 90.7 MiB (5%)

Audio #2
ID : 3
Format : AAC
Format/Info : Advanced Audio Codec
Format version : Version 4
Format profile : LC
Format settings, SBR : No
Codec ID : 40
Duration : 1h 39mn
Bit rate mode : Variable
Bit rate : 448 Kbps
Maximum bit rate : 464 Kbps
Channel(s) : 6 channels
Channel positions : Front: L C R, Rear: L R, LFE
Sampling rate : 48.0 KHz
Resolution : 16 bits
Stream size : 317 MiB (18%)

Text
ID : 4
Format : Timed text
Codec ID : tx3g
Duration : 1h 35mn
Bit rate mode : Variable
Bit rate : 89 bps
Stream size : 61.8 KiB (0%)

English SRT : External

Language : English


 
http://www.imdb.com/title/tt0105236/

Release Date: 23 October 1992 (USA)

Genre: Crime | Drama | Mystery | Thriller 

Plot: After a simple jewelery heist goes terribly wrong, the surviving criminals begin to suspect that one of them is a police informant. 

Cast: 
Harvey Keitel ... Mr. White - Larry Dimmick
Tim Roth ... Mr. Orange - Freddy Newandyke
Michael Madsen ... Mr. Blonde - Vic Vega
Chris Penn ... Nice Guy Eddie Cabot
Steve Buscemi ... Mr. Pink
Lawrence Tierney ... Joe Cabot
Edward Bunker ... Mr. Blue (as Eddie Bunker)
Quentin Tarantino ... Mr. Brown
Randy Brooks ... Holdaway
Kirk Baltz ... Ofcr. Marvin Nash
Steven Wright ... K-Billy DJ (voice)
Rich Turner ... Sheriff #1
David Steen ... Sheriff #2
Tony Cosmo ... Sheriff #3
Stevo Polyi ... Sheriff #4 (as Stevo Poliy)


Screenshots
 
http://postimg.com/image/17000/16640.jpg
 
http://postimg.com/image/17000/16641.jpg